<?xml version="1.0" standalone="no"?>
<!DOCTYPE svg PUBLIC "-//W3C//DTD SVG 20010904//EN"
 "http://www.w3.org/TR/2001/REC-SVG-20010904/DTD/svg10.dtd">
<svg version="1.0" xmlns="http://www.w3.org/2000/svg"
 width="700.000000pt" height="700.000000pt" viewBox="0 0 700.000000 700.000000"
 preserveAspectRatio="xMidYMid meet">
<metadata>
Created by potrace 1.11, written by Peter Selinger 2001-2013
</metadata>
<g transform="translate(0.000000,700.000000) scale(0.100000,-0.100000)"
fill="#000000" stroke="none">
<path d="M3360 6474 c-643 -43 -1157 -230 -1658 -603 -171 -127 -446 -402
-573 -573 -336 -451 -528 -935 -590 -1488 -15 -135 -15 -485 0 -620 62 -553
254 -1037 590 -1488 127 -171 402 -446 573 -573 451 -336 935 -528 1488 -590
135 -15 485 -15 620 0 553 62 1037 254 1488 590 171 127 446 402 573 573 336
451 528 935 590 1488 15 135 15 485 0 620 -51 454 -198 882 -432 1259 -232
373 -587 728 -960 960 -375 233 -818 385 -1249 430 -110 12 -380 20 -460 15z
m870 -1844 l-480 -600 255 0 c140 0 255 -3 255 -7 0 -5 -195 -203 -432 -440
l-433 -433 263 0 263 0 -68 -58 c-489 -419 -1556 -1323 -1558 -1320 -1 2 172
230 386 508 213 278 388 508 388 513 1 4 -115 7 -256 7 l-258 0 435 435 435
435 -258 0 c-141 0 -257 3 -256 8 0 7 1787 1552 1795 1552 2 0 -212 -270 -476
-600z"/>
</g>
</svg>
