<?xml version="1.0" standalone="no"?>
<!DOCTYPE svg PUBLIC "-//W3C//DTD SVG 20010904//EN"
 "http://www.w3.org/TR/2001/REC-SVG-20010904/DTD/svg10.dtd">
<svg version="1.0" xmlns="http://www.w3.org/2000/svg"
 width="700.000000pt" height="700.000000pt" viewBox="0 0 700.000000 700.000000"
 preserveAspectRatio="xMidYMid meet">
<metadata>
Created by potrace 1.11, written by Peter Selinger 2001-2013
</metadata>
<g transform="translate(0.000000,700.000000) scale(0.100000,-0.100000)"
fill="#000000" stroke="none">
<path d="M3349 5897 c-2 -3 -38 -7 -79 -11 -75 -6 -86 -7 -190 -27 -153 -28
-331 -90 -501 -173 -286 -141 -528 -377 -679 -663 -133 -250 -212 -558 -214
-836 l-1 -98 -49 -41 c-27 -23 -61 -59 -76 -79 l-27 -38 -66 137 c-105 219
-157 331 -157 338 0 3 16 3 35 0 19 -4 51 -9 70 -11 19 -3 53 -9 75 -14 23 -5
40 -5 40 0 0 5 -66 140 -148 301 -174 345 -242 489 -294 618 -25 61 -37 83
-34 60 2 -19 8 -62 12 -95 3 -33 8 -68 10 -79 2 -10 6 -44 9 -75 4 -31 8 -67
11 -81 2 -14 6 -45 9 -70 6 -50 20 -150 34 -254 6 -38 8 -73 6 -77 -5 -7 -20
-10 -120 -25 -22 -4 -47 -8 -55 -9 -8 -2 -25 -4 -37 -4 -21 -1 -33 -25 -15
-33 4 -1 24 -28 44 -58 20 -30 76 -112 125 -182 397 -575 387 -559 389 -607 8
-219 55 -341 179 -467 38 -39 85 -77 103 -85 36 -16 38 -20 48 -99 3 -30 8
-66 9 -80 2 -14 7 -56 10 -95 4 -38 9 -72 10 -75 2 -3 6 -35 10 -70 3 -36 8
-72 10 -80 2 -8 7 -44 10 -80 4 -36 8 -76 10 -90 2 -14 11 -83 20 -155 8 -71
18 -152 21 -179 3 -27 7 -56 9 -65 1 -9 8 -64 15 -123 l13 -107 69 -73 c39
-40 167 -174 286 -296 120 -123 240 -248 268 -278 l51 -54 889 0 889 0 72 78
c39 42 83 91 98 107 28 30 198 213 311 334 34 36 85 91 113 121 28 30 51 64
52 75 0 11 2 29 3 40 27 191 26 181 46 345 6 47 13 96 15 110 3 14 7 50 10 80
4 30 8 67 11 81 2 15 6 47 9 70 3 24 7 55 10 69 3 14 7 50 10 80 3 30 8 66 10
80 7 52 15 106 19 145 3 22 10 77 17 123 l11 82 60 32 c74 39 148 120 187 201
30 65 37 93 46 192 3 33 8 76 10 96 3 27 74 140 286 457 155 232 281 424 278
426 -2 2 -24 7 -49 10 -25 3 -54 8 -65 10 -11 2 -44 7 -73 11 -52 7 -53 7 -47
38 3 18 12 88 20 157 9 69 18 136 20 150 2 14 7 45 9 70 3 25 8 63 11 85 6 46
12 92 20 155 3 25 8 63 11 85 4 31 -3 20 -31 -50 -47 -117 -147 -327 -312
-652 -124 -245 -145 -292 -125 -279 4 2 26 7 48 10 22 4 49 8 59 10 72 13 105
17 105 11 0 -6 -46 -105 -155 -332 l-68 -142 -27 37 c-15 21 -50 58 -78 83
l-50 44 -6 85 c-42 605 -325 1131 -767 1426 -223 149 -505 248 -794 280 -57 7
-390 15 -396 11z"/>
</g>
</svg>
